# xmcd CD database file
#
# Track frame offsets:
#	150
#	16065
#	41848
#	76632
#	96193
#	113693
#	147403
#	166035
#	187551
#	201660
#	233578
#	261189
#	284692
#	300721
#	317140
#	332824
#
# Disc length: 4650 seconds
#
# Revision: 0
# Processed by: cddbd v1.5PL3 Copyright (c) Steve Scherf et al.
# Submitted via: CDex 1.51
#
DISCID=d4122810
DTITLE=Diverse - Tradicional Cuban Music
DYEAR=2004
DGENRE=Salsa
TTITLE0=Guantanamera - Joseito Fernandez
TTITLE1=Idilio - Laito su sonora
TTITLE2=Marieta - El guayabero
TTITLE3=Chan Chan - Company Segundo
TTITLE4=Hasta siempre comandante - Carlos Pueblas
TTITLE5=El cuarto de Tula - Buena Vista Social Club
TTITLE6=Yo soy el punto Cubano - Celina Gonzalez
TTITLE7=Yolanda - Pablo Milanes
TTITLE8=Dos Gardenas - Buena Vista Social Club
TTITLE9=Caballo viejo - Robertos Torres
TTITLE10=Un monton de estrellas - Polo Montanez
TTITLE11=El guateque - Ibrain Ferrer
TTITLE12=El carretero - Buena Vista Social Club
TTITLE13=Son de la loma - Conjunto los naranjos
TTITLE14=Sata Isabel de las lajas - Benny Moré
TTITLE15=Santa Babara - Celina Gonzalez
EXTD=YEAR: 2004
EXTT0=
EXTT1=
EXTT2=
EXTT3=
EXTT4=
EXTT5=
EXTT6=
EXTT7=
EXTT8=
EXTT9=
EXTT10=
EXTT11=
EXTT12=
EXTT13=
EXTT14=
EXTT15=
PLAYORDER=
